<?xml version="1.0" encoding="UTF-8" standalone="no"?>
<!-- Created with Inkscape (http://www.inkscape.org/) -->

<svg
   version="1.1"
   id="svg1"
   width="400"
   height="400"
   viewBox="0 0 400 400"
   sodipodi:docname="edipack_monochrome.svg"
   inkscape:version="1.4.3 (0d15f75042, 2025-12-25)"
   xmlns:inkscape="http://www.inkscape.org/namespaces/inkscape"
   xmlns:sodipodi="http://sodipodi.sourceforge.net/DTD/sodipodi-0.dtd"
   xmlns="http://www.w3.org/2000/svg"
   xmlns:svg="http://www.w3.org/2000/svg">
  <defs
     id="defs1" />
  <sodipodi:namedview
     id="namedview1"
     pagecolor="#ffffff"
     bordercolor="#000000"
     borderopacity="0.25"
     inkscape:showpageshadow="2"
     inkscape:pageopacity="0.0"
     inkscape:pagecheckerboard="0"
     inkscape:deskcolor="#d1d1d1"
     inkscape:zoom="1.465"
     inkscape:cx="171.67235"
     inkscape:cy="273.72014"
     inkscape:window-width="2560"
     inkscape:window-height="1368"
     inkscape:window-x="0"
     inkscape:window-y="0"
     inkscape:window-maximized="1"
     inkscape:current-layer="g1" />
  <g
     inkscape:groupmode="layer"
     inkscape:label="Image"
     id="g1">
    <path
       id="rect1"
       style="fill:#f9f9f9;fill-opacity:1;stroke-width:3.46667;stroke-linecap:round"
       d="M 153.47266 52.714844 L 153.47266 107.01562 L 157.61719 107.01758 L 98.457031 207.3418 C 95.450981 206.04503 92.207927 205.37553 88.929688 205.375 C 75.734787 205.37509 65.038433 215.98137 65.039062 229.06445 C 65.039523 242.14677 75.735557 252.75186 88.929688 252.75195 C 97.518907 252.75242 105.44729 248.18122 109.69531 240.7793 C 109.49516 242.01813 109.39458 243.27076 109.39453 244.52539 C 109.3939 257.60847 120.09026 268.21475 133.28516 268.21484 C 143.65492 268.21508 152.84078 261.5825 156.02344 251.79688 C 156.02331 251.84117 156.02331 251.88538 156.02344 251.92969 C 156.0239 265.01201 166.71993 275.61715 179.91406 275.61719 C 193.10819 275.6171 203.80423 265.01201 203.80469 251.92969 C 203.80503 240.96021 196.20968 231.42542 185.44727 228.88477 L 189.69922 107.02734 L 190.91406 107.02734 L 218.86914 227.91211 C 210.13868 231.66922 204.48999 240.20592 204.49023 249.64258 C 204.49069 262.72489 215.18673 273.32999 228.38086 273.33008 C 241.57499 273.33 252.27102 262.7249 252.27148 249.64258 C 252.27212 236.5595 241.57576 225.9532 228.38086 225.95312 C 227.69173 225.95353 227.00293 225.98367 226.31641 226.04297 L 197.08984 107.0293 L 201.12305 107.03125 L 286.2793 197.98047 C 283.03202 202.13348 281.26963 207.2392 281.26953 212.49414 C 281.26999 225.57645 291.96603 236.18155 305.16016 236.18164 C 318.35428 236.18156 329.05032 225.57646 329.05078 212.49414 C 329.05061 210.49027 328.73346 208.75037 328.22656 206.81055 L 328.0918 206.38672 L 337.30078 185.1875 C 331.38627 191.99005 326.88925 199.92777 320.85352 206.59375 L 323.41211 197.60742 C 322.54796 196.58323 321.66218 195.72782 320.75781 195.02539 L 326.80664 175.80273 C 326.80664 175.80273 321.22096 185.00842 316.87305 191.8457 L 312.08984 200.24023 L 312.7168 190.4043 C 311.62135 190.06815 310.5807 189.70034 309.2168 189.51758 L 314.60352 171.62109 L 303.92969 188.83594 L 299.94141 194.90625 L 299.92578 189.38086 C 297.14595 189.99946 294.50012 191.10609 292.11328 192.64844 L 210.91406 107.01562 L 211.63477 107.01562 L 211.63477 52.714844 L 153.47266 52.714844 z M 167.33398 65.519531 L 197.71094 65.519531 L 197.71094 93.847656 L 167.33398 93.847656 L 167.33398 65.519531 z M 166.30469 107.01953 L 171.61719 107.02148 L 137.47852 221.20508 C 136.09435 220.96058 134.69112 220.83771 133.28516 220.83789 C 124.69554 220.83782 116.76704 225.40983 112.51953 232.8125 C 112.72044 231.57308 112.82168 230.31978 112.82227 229.06445 C 112.82239 221.96489 109.61099 215.23958 104.07227 210.74023 L 166.30469 107.01953 z M 179.36914 107.02344 L 181.87891 107.02539 L 177.51367 228.36133 C 168.07165 229.30635 160.08896 235.70293 157.17578 244.6582 C 157.17591 244.6139 157.17591 244.5697 157.17578 244.52539 C 157.17591 235.6785 152.20403 227.56879 144.2832 223.49609 L 179.36914 107.02344 z M 305.00586 203.10547 C 310.21251 203.1058 314.43326 207.32655 314.43359 212.5332 C 314.43434 217.74062 310.21328 221.96256 305.00586 221.96289 C 299.79767 221.96364 295.57542 217.74138 295.57617 212.5332 C 295.5765 207.32578 299.79844 203.10472 305.00586 203.10547 z M 88.890625 220.20312 C 94.098045 220.20237 98.319993 224.42344 98.320312 229.63086 C 98.321062 234.83904 94.098805 239.0613 88.890625 239.06055 C 83.683205 239.06023 79.462141 234.83828 79.462891 229.63086 C 79.463211 224.4242 83.683965 220.20345 88.890625 220.20312 z M 133.83984 235.83398 C 139.04726 235.83431 143.26833 240.05625 143.26758 245.26367 C 143.26725 250.47032 139.04649 254.69108 133.83984 254.69141 C 128.63318 254.69109 124.41244 250.47033 124.41211 245.26367 C 124.41136 240.05625 128.63242 235.8343 133.83984 235.83398 z M 227.36914 240.0293 C 232.5758 240.02963 236.79655 244.25037 236.79688 249.45703 C 236.79655 254.66368 232.57579 258.88444 227.36914 258.88477 C 222.16248 258.88445 217.94174 254.66369 217.94141 249.45703 C 217.94173 244.25037 222.16248 240.02962 227.36914 240.0293 z M 180.13281 242.53125 C 185.34023 242.5305 189.56217 246.75156 189.5625 251.95898 C 189.56218 257.1664 185.34023 261.38747 180.13281 261.38672 C 174.92615 261.3864 170.7054 257.16564 170.70508 251.95898 C 170.70541 246.75232 174.92615 242.53157 180.13281 242.53125 z " />
    <g
       id="g77"
       transform="translate(5.5161435,3.904501)"
       style="fill:#f9f9f9">
      <path
         id="path74-3"
         style="fill:#f9f9f9;fill-opacity:1;stroke-width:3.46667;stroke-linecap:round"
         d="m 164.41992,310.43003 v 44.95 h 10.2539 v -10.52592 l -0.008,-0.073 10.94182,-0.17149 a 15.045267,17.090898 0 0 0 15.04181,-17.08982 15.045267,17.090898 0 0 0 -15.04181,-17.08983 h -0.0157 -15.03196 z m 10.2539,9.07318 h 7.70915 0.008 a 7.7161664,7.8280038 0 0 1 7.71506,7.82742 7.7161664,7.8280038 0 0 1 -7.71506,7.82742 l -7.71702,0.10841 v -7.92401 a 7.7161664,7.8280038 0 0 1 0,-0.0118 7.7161664,7.8280038 0 0 1 0,-0.0118 z" />
      <path
         d="m 292.10634,310.43 c -12.48701,5.9e-4 -22.60918,10.0635 -22.60829,22.47593 1.5e-4,12.41172 10.12201,22.47348 22.60829,22.47407 8.58631,3e-4 16.05445,-4.75772 19.8827,-11.76556 l -8.71558,-4.69989 c -2.2328,3.9472 -6.4344,6.38976 -10.99001,6.38894 -6.9613,-6.1e-4 -12.60428,-5.6102 -12.6045,-12.52992 2.2e-4,-6.91971 5.6432,-12.52932 12.6045,-12.52993 4.64823,9e-5 8.91923,2.54291 11.11306,6.61638 l 8.60371,-4.63276 C 308.05319,314.96019 300.41453,310.43039 292.10634,310.43 Z"
         style="fill:#f9f9f9;fill-opacity:1;stroke-width:3.46667;stroke-linecap:round"
         id="path73" />
      <path
         d="m 19.89,310.43 h 33.64 v 9.38 l -23.52,0.2 v 8.79 h 18.4 v 8.48 H 30.01 V 346 h 23.52 v 9.38 H 19.89 Z"
         id="path63"
         style="fill:#f9f9f9"
         sodipodi:nodetypes="ccccccccccccc" />
      <path
         id="path75"
         style="fill:#f9f9f9;fill-opacity:1;stroke-width:3.46668;stroke-linecap:round"
         d="m 72.109375,310.43 v 44.95 h 22.841784 0.03503 1.827109 l -0.0039,-0.0973 A 19.677866,22.475431 0 0 0 114.64658,332.90598 19.677866,22.475431 0 0 0 94.968672,310.43 Z m 10.639652,9.75237 h 11.59115 0.01751 a 9.3064947,12.72213 0 0 1 9.306783,12.72361 9.3064947,12.72213 0 0 1 -9.306783,12.72166 h -11.60866 z" />
      <path
         d="m 132.78001,310.42999 h 10.54704 V 355.38 h -10.54704 z"
         id="path65"
         style="fill:#f9f9f9;stroke-width:1"
         sodipodi:nodetypes="ccccc" />
      <path
         d="M 208.56009,355.37999 227.75948,310.43 h 11.3662 l 19.40128,44.94999 h -11.51762 l -2.72546,-6.9146 h -21.6826 l -2.72546,6.9146 h -11.32583 z m 31.38323,-16.23165 -6.47046,-14.32384 -6.3897,14.32384 h 12.85007 z"
         id="path67"
         style="fill:#f9f9f9;stroke-width:1"
         sodipodi:nodetypes="ccccccccccccccc" />
      <path
         d="m 332.39,310.43 h 10.36 l 0.11,19.22 17.74,-19.22 h 12.54 l -15.86,18.91 17.69,26.04 h -12.42 l -12.19,-17.98 -7.42,7.9 v 10.08 H 332.4 Z"
         id="path68"
         style="fill:#f9f9f9"
         sodipodi:nodetypes="ccccccccccccc" />
    </g>
  </g>
</svg>
